<?xml version="1.0" encoding="UTF-8"?>
<svg version="1.1" xmlns="http://www.w3.org/2000/svg" width="28" height="31">
<path d="M0 0 C9.24 0 18.48 0 28 0 C28 10.23 28 20.46 28 31 C18.76 31 9.52 31 0 31 C0 20.77 0 10.54 0 0 Z " fill="#FFFBFB" transform="translate(0,0)"/>
<path d="M0 0 C0.5775 0.515625 1.155 1.03125 1.75 1.5625 C3.83907305 3.22178666 3.83907305 3.22178666 6 2.8125 C8.06348821 1.97420791 10.03678574 1.05172193 12 0 C12.66 0.66 13.32 1.32 14 2 C13.60495559 4.9628331 12.40182371 7.38326241 11 10 C11.99 10.66 12.98 11.32 14 12 C13.67 13.32 13.34 14.64 13 16 C9.23312136 16 8.08809695 15.76462683 5 14 C4.5875 14.515625 4.175 15.03125 3.75 15.5625 C3.1725 16.036875 2.595 16.51125 2 17 C-0.1875 16.6875 -0.1875 16.6875 -2 16 C-1.45276317 12.62537285 -0.9451 10.91765 1 8 C0.484375 7.5875 -0.03125 7.175 -0.5625 6.75 C-1.036875 6.1725 -1.51125 5.595 -2 5 C-1.74853421 2.86254078 -1.54074221 1.54074221 0 0 Z " fill="#FF0E0D" transform="translate(8,8)"/>
</svg>
