<?xml version="1.0" encoding="UTF-8"?>
<svg version="1.1" xmlns="http://www.w3.org/2000/svg" width="57" height="49">
<path d="M0 0 C18.81 0 37.62 0 57 0 C57 16.17 57 32.34 57 49 C38.19 49 19.38 49 0 49 C0 32.83 0 16.66 0 0 Z " fill="#97AF60" transform="translate(0,0)"/>
<path d="M0 0 C18.81 0 37.62 0 57 0 C57 16.17 57 32.34 57 49 C38.19 49 19.38 49 0 49 C0 32.83 0 16.66 0 0 Z M5 13 C1.72462477 17.91306285 1.40957101 23.17369127 2 29 C4.06223913 35.91456649 8.08685208 40.73344073 14.29296875 44.328125 C21.95165567 47.78610129 29.59842508 48.16130067 37.6875 45.9375 C44.3440313 43.37270747 49.34577579 38.97055551 52.5 32.5625 C54.68579393 26.84057722 54.70858472 22.3758429 52.9375 16.4375 C48.81080532 9.11594492 43.93397996 5.20066603 35.89453125 2.66015625 C23.53271478 -0.1592054 13.02958846 3.1683164 5 13 Z " fill="#FAFBF9" transform="translate(0,0)"/>
<path d="M0 0 C9.48170732 5.68902439 9.48170732 5.68902439 11.0625 9.6875 C10.95571012 15.34736353 8.93771493 19.73496836 5.265625 24.02734375 C-0.12693937 29.12870964 -5.59893714 31.37811068 -12.875 32.40625 C-17.19515448 31.84462992 -19.4082123 29.5182996 -22.375 26.5625 C-23.19291016 25.7880957 -23.19291016 25.7880957 -24.02734375 24.99804688 C-25.38354681 23.6979274 -26.69602919 22.35250047 -28 21 C-28 20.67 -28 20.34 -28 20 C-20.41 20 -12.82 20 -5 20 C-5 19.01 -5 18.02 -5 17 C-5.598125 16.7525 -6.19625 16.505 -6.8125 16.25 C-9.28647521 14.83629988 -10.43370255 13.34944617 -12 11 C-8.125 12.875 -8.125 12.875 -7 14 C-6.67 11.03 -6.34 8.06 -6 5 C-11.94 5 -17.88 5 -24 5 C-24 4.67 -24 4.34 -24 4 C-17.4 4 -10.8 4 -4 4 C-4 7.96 -4 11.92 -4 16 C-2.68 16 -1.36 16 0 16 C0 10.72 0 5.44 0 0 Z " fill="#75884B" transform="translate(43,15)"/>
<path d="M0 0 C7.92 0 15.84 0 24 0 C24 3.3 24 6.6 24 10 C21.36 8.35 18.72 6.7 16 5 C15.113125 5.825 14.22625 6.65 13.3125 7.5 C10.39454162 9.96374788 8.83454214 10.20727255 5 10 C3.31201173 11.43750191 3.31201173 11.43750191 2 13 C1.34 13 0.68 13 0 13 C0 8.71 0 4.42 0 0 Z " fill="#F0F2ED" transform="translate(13,20)"/>
<path d="M0 0 C8.25 0 16.5 0 25 0 C25 5.61 25 11.22 25 17 C23.68 17 22.36 17 21 17 C21 13.04 21 9.08 21 5 C14.07 5 7.14 5 0 5 C0 3.35 0 1.7 0 0 Z " fill="#F2F4EE" transform="translate(18,14)"/>
<path d="M0 0 C3.22255684 1.61127842 5.5077525 3.5642183 8.125 6.0625 C8.125 7.0525 8.125 8.0425 8.125 9.0625 C0.535 9.0625 -7.055 9.0625 -14.875 9.0625 C-13.225 7.4125 -11.575 5.7625 -9.875 4.0625 C-8.555 4.0625 -7.235 4.0625 -5.875 4.0625 C-5.215 3.381875 -4.555 2.70125 -3.875 2 C-1.875 0.0625 -1.875 0.0625 0 0 Z " fill="#F0F2EE" transform="translate(29.875,25.9375)"/>
</svg>
