<?xml version="1.0" encoding="UTF-8"?>
<svg version="1.1" xmlns="http://www.w3.org/2000/svg" width="29" height="24">
<path d="M0 0 C9.57 0 19.14 0 29 0 C29 7.92 29 15.84 29 24 C19.43 24 9.86 24 0 24 C0 16.08 0 8.16 0 0 Z " fill="#F9FBFB" transform="translate(0,0)"/>
<path d="M0 0 C0.556875 0.268125 1.11375 0.53625 1.6875 0.8125 C1.6875 4.8125 1.6875 4.8125 -0.8671875 7.828125 C-1.96370455 8.91667704 -3.07095514 9.99450057 -4.1875 11.0625 C-4.74308594 11.61679688 -5.29867188 12.17109375 -5.87109375 12.7421875 C-10.03163485 16.8125 -10.03163485 16.8125 -12.3125 16.8125 C-13.99982277 14.82989574 -15.66616057 12.8292658 -17.3125 10.8125 C-17.9725 10.4825 -18.6325 10.1525 -19.3125 9.8125 C-18.9825 8.4925 -18.6525 7.1725 -18.3125 5.8125 C-14.03540301 5.8125 -12.75319624 6.51870251 -9.3125 8.8125 C-9.085625 8.255625 -8.85875 7.69875 -8.625 7.125 C-6.64212771 3.63136787 -4.35995123 -0.35350956 0 0 Z " fill="#148310" transform="translate(23.3125,4.1875)"/>
</svg>
